<?xml version="1.0" encoding="UTF-8" standalone="no"?>
<!-- Created with Inkscape (http://www.inkscape.org/) -->

<svg
   width="120"
   height="120"
   viewBox="0 0 120 120"
   version="1.1"
   id="svg5"
   inkscape:version="1.1.2 (0a00cf5339, 2022-02-04)"
   sodipodi:docname="pangwa.svg"
   xmlns:inkscape="http://www.inkscape.org/namespaces/inkscape"
   xmlns:sodipodi="http://sodipodi.sourceforge.net/DTD/sodipodi-0.dtd"
   xmlns="http://www.w3.org/2000/svg"
   xmlns:svg="http://www.w3.org/2000/svg">
  <sodipodi:namedview
     id="namedview7"
     pagecolor="#ffffff"
     bordercolor="#666666"
     borderopacity="1.0"
     inkscape:pageshadow="2"
     inkscape:pageopacity="0.0"
     inkscape:pagecheckerboard="0"
     inkscape:document-units="px"
     showgrid="false"
     inkscape:zoom="5.6568543"
     inkscape:cx="53.563339"
     inkscape:cy="65.407377"
     inkscape:window-width="1600"
     inkscape:window-height="831"
     inkscape:window-x="0"
     inkscape:window-y="0"
     inkscape:window-maximized="1"
     inkscape:current-layer="layer1" />
  <defs
     id="defs2" />
  <g
     inkscape:label="Layer 1"
     inkscape:groupmode="layer"
     id="layer1">
    <path
       style="fill:#000000;stroke-width:0.15678"
       d="M 56.064069,100.80175 C 52.896547,100.29289 51.264888,99.826929 46.500474,98.070594 44.732777,97.418965 40.746638,95.99705 37.64239,94.910814 26.306378,90.944074 22.895529,89.283933 17.77586,85.241307 13.612099,81.953495 8.2279223,75.773846 7.1546224,73.050861 6.6535704,71.77969 6.7353715,70.963518 7.6405619,68.202399 9.1338449,63.647392 11.394382,58.834612 14.321676,53.978033 l 1.422809,-2.360553 -0.966347,-1.956957 c -2.148316,-4.350576 -3.523553,-9.362184 -4.018481,-14.644069 -0.229585,-2.450138 -0.195249,-6.471367 0.07095,-8.309353 0.729762,-5.038633 2.147945,-6.881795 5.856431,-7.611396 1.522604,-0.299554 5.64094,-0.101082 7.785807,0.375212 4.463595,0.9912 9.511692,3.102256 13.432346,5.617251 1.131584,0.72588 1.307757,0.793014 1.676669,0.638932 0.226726,-0.09469 1.259676,-0.525279 2.295446,-0.956853 8.996755,-3.74869 20.454569,-4.50688 30.197171,-1.998219 2.525622,0.65033 4.344774,1.282791 6.633759,2.30634 0.942703,0.421544 1.763243,0.766441 1.823418,0.766441 0.06018,0 0.840998,-0.459383 1.735158,-1.020852 4.012471,-2.519544 8.736098,-4.445445 13.28846,-5.417927 1.937163,-0.413817 6.161548,-0.587037 7.568048,-0.310325 3.22975,0.635413 4.56182,2.004121 5.57667,5.730033 0.41787,1.534171 0.42708,1.663653 0.42921,6.03604 0.002,4.212407 -0.0232,4.611859 -0.44084,6.97672 -0.80807,4.575631 -1.97099,8.463727 -3.48864,11.663859 -0.46604,0.982686 -0.84734,1.847891 -0.84734,1.922667 0,0.07471 0.67527,1.281474 1.50059,2.681539 3.73444,6.335015 7.27948,14.641132 7.29836,17.100233 0.008,1.163679 -0.30073,1.877195 -1.75059,4.033681 -2.95532,4.395683 -7.51528,8.958028 -11.870685,11.876899 -4.490534,3.009416 -7.443807,4.355892 -16.536459,7.53936 -2.720715,0.952554 -6.861206,2.438659 -9.201093,3.302456 -6.51016,2.403288 -8.957887,2.970028 -13.260201,3.070158 -2.073573,0.0482 -3.065528,-0.002 -4.468237,-0.2276 z m 8.47821,-4.707511 c 4.395296,-0.93907 7.694827,-2.667111 10.492199,-5.495005 2.312896,-2.338141 3.541434,-4.676216 3.957667,-7.531989 0.281399,-1.930668 0.01242,-3.437248 -0.96521,-5.406562 -0.998505,-2.011341 -2.242072,-3.547457 -5.708924,-7.051944 -1.53717,-1.553873 -3.105903,-3.25604 -3.486071,-3.782601 -2.045101,-2.832615 -2.589307,-6.028622 -1.572218,-9.233326 1.934655,-6.095828 7.926999,-8.598313 14.977952,-6.254988 4.657566,1.547911 8.962451,5.195704 13.298876,11.268969 2.562949,3.589467 5.17399,7.891257 5.31422,8.755369 0.0758,0.466876 0.0287,0.58439 -0.32769,0.817895 -0.42133,0.27606 -1.478331,0.267032 -2.899365,-0.02468 -0.484448,-0.09956 -0.524203,-0.08133 -0.414458,0.189192 0.06676,0.164659 0.157138,1.075286 0.200823,2.023798 0.0652,1.415637 0.01935,1.975676 -0.25599,3.126185 -0.581455,2.429698 -2.101085,5.231617 -3.767693,6.946953 -0.356066,0.366474 -0.607484,0.666305 -0.558711,0.666305 0.230165,0 2.024227,-1.001819 3.293737,-1.83926 2.177553,-1.436443 3.742372,-2.736404 5.884107,-4.888202 2.17916,-2.189385 3.89959,-4.380774 5.13718,-6.543438 l 0.81827,-1.4299 -1.08055,-2.330769 c -1.7739,-3.826383 -2.37005,-5.04322 -3.59975,-7.34775 C 100.63737,55.774771 95.25737,47.265662 92.674144,43.953002 91.208411,42.073373 89.15732,39.67863 87.655289,38.093254 l -1.097462,-1.158356 1.19854,-1.11597 c 2.455695,-2.286512 6.18761,-3.974328 9.464115,-4.280292 0.924404,-0.08632 1.016616,-0.06479 1.411024,0.329627 0.359065,0.359065 0.407064,0.508354 0.321917,1.00122 -0.200435,1.160188 -1.158807,2.802212 -2.447184,4.19288 -1.687406,1.821377 -1.666438,2.016708 0.1661,1.547233 0.763847,-0.195688 1.060041,-0.209997 1.403349,-0.06779 1.1659,0.482931 0.952996,2.411126 -0.397113,3.596538 -0.295946,0.259843 -0.538082,0.590262 -0.538082,0.734265 0,0.249788 2.655576,4.764127 3.068577,5.216409 0.56646,0.620354 2.39838,-4.913381 3.10792,-9.388159 0.90883,-5.731721 1.03818,-11.632509 0.28707,-13.096102 -0.54988,-1.071485 -1.04753,-1.251731 -3.40635,-1.233775 -5.20221,0.03961 -11.832033,2.569608 -17.604391,6.718002 l -1.456026,1.046393 -2.698651,-1.333403 c -3.8645,-1.909448 -7.12349,-2.913178 -11.870297,-3.655911 -2.57592,-0.403055 -10.228012,-0.402312 -12.934371,0.0013 -4.707969,0.702045 -8.62089,1.890043 -12.321829,3.741022 -1.350155,0.675262 -2.50463,1.227749 -2.565499,1.227749 -0.06088,0 -0.686983,-0.417824 -1.391365,-0.928502 -3.318944,-2.406234 -6.855017,-4.263167 -10.295558,-5.406604 -2.791467,-0.927724 -4.839927,-1.342851 -7.133501,-1.44562 -1.754673,-0.07862 -1.92863,-0.05967 -2.583287,0.281464 -0.386059,0.201169 -0.823784,0.578419 -0.972721,0.838331 -1.314275,2.293572 -0.181696,14.575578 1.839175,19.944536 0.574324,1.525846 1.194858,2.864768 1.327696,2.864768 0.116769,0 3.207171,-4.776601 3.377388,-5.220186 0.05667,-0.147597 -0.152682,-0.459207 -0.563765,-0.838938 -0.813632,-0.751587 -1.248635,-1.581922 -1.248635,-2.383402 0,-1.260523 0.972881,-1.70159 2.539071,-1.151119 1.496056,0.525821 1.458153,0.121291 -0.148458,-1.584342 -1.341031,-1.423692 -2.335348,-3.112346 -2.487878,-4.225183 -0.08582,-0.626105 -0.05279,-0.727733 0.335744,-1.033359 0.532242,-0.418661 1.140288,-0.426313 2.89712,-0.03646 2.238257,0.496692 4.459894,1.451025 6.3496,2.727553 1.037316,0.700725 2.743654,2.258594 2.743654,2.504928 0,0.08621 -0.617914,0.798613 -1.37314,1.583133 -3.422475,3.555216 -6.228186,7.31824 -10.648965,14.282388 -2.436738,3.838641 -4.354037,7.124913 -5.559621,9.529232 -1.015646,2.025537 -3.450252,7.451018 -3.462701,7.716592 -0.01666,0.355508 2.332514,4.048474 3.92003,6.162371 1.88052,2.504042 4.607232,5.056141 7.370512,6.898499 1.371123,0.914172 3.075588,1.911634 3.266583,1.911634 0.05622,0 -0.223189,-0.347887 -0.62091,-0.773085 -1.584104,-1.693536 -2.824907,-4.075476 -3.413373,-6.552566 -0.266459,-1.121636 -0.312973,-1.708561 -0.251913,-3.178614 0.04118,-0.991648 0.129955,-1.973622 0.197254,-2.182179 0.105621,-0.327313 0.08235,-0.36384 -0.170054,-0.266983 -0.582021,0.223334 -2.669347,0.301373 -3.021421,0.112976 -0.445803,-0.23859 -0.44993,-0.914868 -0.01077,-1.775568 0.98506,-1.930883 4.368987,-7.150042 6.228527,-9.606493 1.506441,-1.990004 5.046339,-5.526362 6.718772,-6.71204 3.694194,-2.619005 7.6241,-3.906774 11.17875,-3.663115 2.786535,0.191014 4.658653,0.996982 6.43119,2.768673 3.590235,3.588522 4.099078,9.083079 1.23045,13.286555 -0.280722,0.411349 -1.927557,2.198263 -3.659632,3.970915 -3.513213,3.595512 -4.80187,5.195537 -5.731776,7.11673 -1.160612,2.397809 -1.35216,4.660081 -0.6008,7.095725 1.816351,5.887967 7.70146,10.309541 15.421718,11.586526 1.799268,0.297628 5.837998,0.172428 7.772699,-0.240926 z M 53.775407,89.816922 c -1.662849,-0.254841 -3.168753,-0.936966 -4.231862,-1.916903 -0.749082,-0.690491 -0.90382,-1.303191 -0.444998,-1.762 0.332436,-0.332449 0.388893,-0.323503 1.766375,0.279424 1.650208,0.722296 2.66941,0.937893 4.023128,0.851008 1.512873,-0.09707 2.553575,-0.599067 2.957812,-1.426685 0.310468,-0.635627 0.533529,-2.89823 0.355615,-3.607092 -0.08438,-0.336226 -0.23797,-0.425347 -1.000959,-0.580846 -2.487557,-0.506931 -4.585616,-2.692571 -4.585616,-4.777048 0,-4.026144 6.866091,-6.314009 11.731895,-3.909193 2.636053,1.30281 3.620352,3.365851 2.625406,5.502757 -0.710464,1.525895 -2.154715,2.637459 -4.088194,3.146494 l -1.097461,0.288915 0.01143,1.483422 c 0.01391,1.801393 0.237237,2.533992 0.934934,3.066152 1.505697,1.148455 3.655249,1.113768 6.58586,-0.106183 0.895025,-0.372603 1.217488,-0.442575 1.454637,-0.315652 1.621138,0.867607 -1.397041,3.31276 -4.660396,3.775594 -1.540211,0.218447 -2.790899,-0.02071 -4.508674,-0.862074 -0.790065,-0.386982 -1.522264,-0.703611 -1.627113,-0.703611 -0.104842,0 -0.563576,0.213378 -1.019393,0.474165 -1.675584,0.958683 -3.531547,1.352407 -5.182409,1.099405 z M 44.42614,66.214531 c 2.384437,-0.562193 4.049534,-2.115569 3.518056,-3.282031 -0.24689,-0.541867 -0.871849,-0.574832 -2.294285,-0.120926 -1.073173,0.342387 -1.564425,0.404955 -3.225725,0.410885 -1.895317,0.0066 -2.009435,-0.0116 -3.470858,-0.577168 -2.195943,-0.848888 -2.800351,-0.771744 -2.800351,0.357429 0,2.278291 4.622062,4.072709 8.273163,3.211894 z m 36.276207,-0.217817 c 1.923033,-0.613677 3.268606,-1.822397 3.268606,-2.936164 0,-0.385176 -0.103781,-0.58994 -0.396099,-0.781468 -0.379204,-0.248463 -0.474491,-0.23357 -2.234119,0.349147 -1.731671,0.573457 -1.946877,0.60836 -3.719383,0.603324 -1.642465,-0.005 -2.032169,-0.05947 -3.069002,-0.431144 -1.823035,-0.653617 -2.496697,-0.546423 -2.496697,0.397235 0,1.270906 1.424757,2.476163 3.568336,3.018627 1.258763,0.31855 3.726441,0.211853 5.078358,-0.219557 z"
       id="path21"
       sodipodi:nodetypes="sscsssscssssssssssssssscsssscsssscsscsssssssssscsssssssscsssscsssssssssssssscssssssssssssssssssssssssssssssssssscsssssssssccsssssssssssscsssssssssscscccsccssssccsss" />
  </g>
</svg>
